<svg id="Layer_1" height="512" viewBox="0 0 512 512" width="512" xmlns="http://www.w3.org/2000/svg" xmlns:xlink="http://www.w3.org/1999/xlink" data-name="Layer 1"><linearGradient id="GradientFill_1" gradientUnits="userSpaceOnUse" x1="75.057" x2="436.943" y1="436.942" y2="75.057"><stop offset="0" stop-color="#e81e25"/><stop offset=".108" stop-color="#ea3522"/><stop offset=".416" stop-color="#f1711c"/><stop offset=".678" stop-color="#f59d17"/><stop offset=".881" stop-color="#f8b814"/><stop offset="1" stop-color="#f9c213"/></linearGradient><path d="m256 0c-141.16 0-256 114.8-256 256s114.84 256 256 256 256-114.8 256-256-114.84-256-256-256zm105.712 182.447-50.012 50.009a10 10 0 0 1 -14.146-14.144l24.932-24.932a4.69 4.69 0 0 0 -3.317-8h-79.01a73.171 73.171 0 0 0 -73.09 73.091v128.29a9.867 9.867 0 1 1 -19.734 0c0-21.394-.065-43.143-.135-64.178-.064-21.018-.135-42.756-.135-64.113a93.2 93.2 0 0 1 93.094-93.1h79.013a4.685 4.685 0 0 0 3.317-8l-24.938-24.938a10 10 0 0 1 14.149-14.145l49.9 49.9a10.344 10.344 0 0 1 3.333 7.149 9.919 9.919 0 0 1 -3.222 7.113zm6.515-20.9a19.755 19.755 0 0 1 6.082 13.677 19.3 19.3 0 0 1 -5.965 13.845l-50.016 50.021a19.377 19.377 0 0 1 -27.4-27.4l16.933-16.935h-67.7a63.785 63.785 0 0 0 -63.714 63.714v128.289a19.242 19.242 0 1 1 -38.484 0c0-21.375-.064-43.119-.135-64.143s-.134-42.774-.135-64.148a102.759 102.759 0 0 1 102.466-102.475h67.7l-16.934-16.927a19.378 19.378 0 0 1 27.4-27.406z" fill="url(#GradientFill_1)" fill-rule="evenodd"/></svg>