<svg id="Layer_1" enable-background="new 0 0 512 512" viewBox="0 0 512 512" xmlns="http://www.w3.org/2000/svg"><g><g><g><path clip-rule="evenodd" d="m348.814 492.565 130.189-.001c3.642 0 6.776-1.576 8.948-4.5s2.776-6.379 1.725-9.866c-9.815-32.545-40.022-56.249-75.767-56.249-35.746 0-65.953 23.703-75.768 56.249-1.052 3.487-.448 6.942 1.725 9.866 2.172 2.925 5.306 4.501 8.948 4.501z" fill="#8ac9fe" fill-rule="evenodd"/></g><g><path clip-rule="evenodd" d="m479.004 492.564c3.642 0 6.776-1.576 8.948-4.5s2.776-6.379 1.725-9.865c-9.815-32.546-40.022-56.249-75.767-56.249-3.784 0-7.505.269-11.148.782 30.764 4.338 55.843 26.367 64.619 55.467 1.052 3.487.447 6.941-1.725 9.865s-5.306 4.5-8.948 4.5z" fill="#60b7ff" fill-rule="evenodd"/></g><g><circle clip-rule="evenodd" cx="413.91" cy="375.393" fill="#f6dccd" fill-rule="evenodd" r="40.008"/></g><g><path clip-rule="evenodd" d="m413.91 335.385c22.096 0 40.008 17.912 40.008 40.008s-17.912 40.008-40.008 40.008c-1.892 0-3.753-.135-5.574-.388 19.457-2.713 34.434-19.416 34.434-39.62s-14.977-36.907-34.434-39.62c1.821-.254 3.682-.388 5.574-.388z" fill="#f1cbbc" fill-rule="evenodd"/></g></g><g><g><path clip-rule="evenodd" d="m32.996 492.565 130.189-.001c3.642 0 6.776-1.576 8.948-4.5s2.777-6.379 1.725-9.866c-9.815-32.545-40.022-56.249-75.767-56.249-35.746 0-65.953 23.703-75.768 56.249-1.052 3.487-.448 6.942 1.725 9.866 2.172 2.925 5.306 4.501 8.948 4.501z" fill="#8ac9fe" fill-rule="evenodd"/></g><g><path clip-rule="evenodd" d="m163.186 492.564c3.642 0 6.776-1.576 8.948-4.5s2.777-6.379 1.725-9.865c-9.815-32.546-40.022-56.249-75.767-56.249-3.784 0-7.505.269-11.147.782 30.764 4.338 55.843 26.367 64.619 55.467 1.052 3.487.447 6.941-1.725 9.865s-5.306 4.5-8.948 4.5z" fill="#60b7ff" fill-rule="evenodd"/></g><g><circle clip-rule="evenodd" cx="98.092" cy="375.393" fill="#f6dccd" fill-rule="evenodd" r="40.008"/></g><g><path clip-rule="evenodd" d="m98.092 335.385c22.096 0 40.008 17.912 40.008 40.008s-17.912 40.008-40.008 40.008c-1.892 0-3.752-.135-5.574-.388 19.457-2.713 34.434-19.416 34.434-39.62s-14.977-36.907-34.434-39.62c1.821-.254 3.682-.388 5.574-.388z" fill="#f1cbbc" fill-rule="evenodd"/></g></g><g><g><path clip-rule="evenodd" d="m449.578 19.435h-387.155c-21.354 0-38.825 15.418-38.825 34.259v167.177c0 18.838 17.476 34.259 38.825 34.259h59.925v50.908c0 2.016 1.117 3.74 2.957 4.564 1.841.823 3.87.508 5.374-.836l61.144-54.636h176.404v50.908c0 2.016 1.117 3.74 2.957 4.564 1.84.823 3.87.508 5.374-.836l61.145-54.636h11.875c21.351 0 38.825-15.417 38.825-34.259v-167.176c-.001-18.843-17.472-34.26-38.825-34.26z" fill="#6cf5c2" fill-rule="evenodd"/></g><g><path clip-rule="evenodd" d="m449.578 19.435h-10c21.354 0 38.824 15.417 38.824 34.259v167.177c0 18.842-17.474 34.259-38.824 34.259h10c21.351 0 38.825-15.417 38.825-34.259v-167.176c-.001-18.843-17.472-34.26-38.825-34.26zm-326.866 288.515c.469 1.162 1.372 2.106 2.593 2.653 1.841.823 3.87.508 5.374-.836l61.144-54.636h-10zm245.879 0c.469 1.162 1.372 2.106 2.594 2.653 1.84.823 3.87.508 5.374-.836l61.145-54.636h-10z" fill="#00e499" fill-rule="evenodd"/></g></g><g><g><path clip-rule="evenodd" d="m272.181 373.121h-41.686v23.948c0 8.687 7.107 15.793 15.793 15.793h20.497c8.686 0 15.793-7.106 15.793-15.793v-23.948z" fill="#b1b1b5" fill-rule="evenodd"/></g><g><path clip-rule="evenodd" d="m213.948 342.347.35 23.134c.132 8.687 7.106 15.793 15.794 15.793h52.891c8.686 0 15.923-7.106 15.792-15.793l-.349-23.142c-27.587.87-56.72.008-84.478.008z" fill="#d1d1d6" fill-rule="evenodd"/></g><g><path clip-rule="evenodd" d="m264.649 57.736c0 4.772-3.869 8.64-8.641 8.64s-8.64-3.869-8.64-8.64v-22.893c0-4.772 3.868-8.64 8.64-8.64s8.641 3.869 8.641 8.64z" fill="#ffe177" fill-rule="evenodd"/></g><g><path clip-rule="evenodd" d="m190.164 73.058c2.386 4.119.98 9.393-3.139 11.779s-9.393.98-11.779-3.139l-11.447-19.826c-2.386-4.119-.98-9.393 3.139-11.779 4.12-2.386 9.394-.98 11.78 3.139z" fill="#ffe177" fill-rule="evenodd"/></g><g><path clip-rule="evenodd" d="m133.362 123.581c4.119 2.386 5.525 7.66 3.139 11.779s-7.66 5.525-11.779 3.139l-19.826-11.447c-4.119-2.386-5.525-7.66-3.139-11.779 2.386-4.12 7.66-5.525 11.78-3.139z" fill="#ffe177" fill-rule="evenodd"/></g><g><path clip-rule="evenodd" d="m336.772 81.665c-2.367 4.119-7.626 5.54-11.746 3.173-4.119-2.367-5.54-7.626-3.173-11.746l11.447-19.827c2.367-4.12 7.626-5.54 11.746-3.173s5.54 7.626 3.173 11.746z" fill="#ffe177" fill-rule="evenodd"/></g><g><path clip-rule="evenodd" d="m387.261 138.5c-4.119 2.367-9.378.947-11.746-3.173-2.367-4.119-.947-9.378 3.172-11.746l19.826-11.447c4.119-2.367 9.379-.947 11.746 3.173 2.367 4.119.947 9.379-3.173 11.746z" fill="#ffe177" fill-rule="evenodd"/></g><g><path clip-rule="evenodd" d="m314.041 318.098c4.676-79.564 39.158-76.338 39.158-130.317 0-53.677-43.514-97.191-97.191-97.191s-97.191 43.514-97.191 97.191c0 53.979 34.482 50.752 39.158 130.317 2.083 15.716 11.063 19.26 16.257 19.26 77.348 0 91.047 7.637 99.809-19.26z" fill="#ffe177" fill-rule="evenodd"/></g><g><path clip-rule="evenodd" d="m314.041 318.098c4.676-79.564 39.158-76.338 39.158-130.317 0-53.677-43.514-97.191-97.191-97.191-1.812 0-3.612.054-5.401.152 51.165 2.803 91.791 45.175 91.791 97.039 0 53.979-34.482 50.752-39.158 130.317-5.202 15.968-12.144 19.765-33.11 20.214 29.572.434 37.903-1.773 43.911-20.214z" fill="#ffd064" fill-rule="evenodd"/></g><g><path clip-rule="evenodd" d="m272.181 381.274h10.801c8.686 0 15.923-7.106 15.792-15.793l-.349-23.142c-3.575.113-7.177.196-10.797.257l.346 22.885c.131 8.686-7.106 15.793-15.793 15.793z" fill="#b1b1b5" fill-rule="evenodd"/></g><g><path clip-rule="evenodd" d="m197.976 318.097v15.796c0 8.687 7.108 15.793 15.794 15.793h84.48c8.686 0 15.792-7.106 15.792-15.793v-15.796z" fill="#eceff1" fill-rule="evenodd"/></g><g><path clip-rule="evenodd" d="m287.448 349.686h10.801c8.686 0 15.792-7.106 15.792-15.793v-15.796h-10.801l-.001 15.796c0 8.687-7.106 15.793-15.791 15.793z" fill="#d1d1d6" fill-rule="evenodd"/></g></g><g><g><path clip-rule="evenodd" d="m243.215 189.006c2.295 2.295 3.576 5.39 3.576 8.636v26.475c0 1.599-.303 3.183-.917 4.661-.617 1.484-1.535 2.828-2.671 3.964-1.135 1.136-2.479 2.053-3.963 2.67-1.477.615-3.061.918-4.66.918-3.245 0-6.341-1.282-8.636-3.576-2.295-2.295-3.576-5.39-3.576-8.636 0-1.472.248-2.936.767-4.315.519-1.378 1.296-2.646 2.268-3.751.576-.654.512-1.659-.142-2.235s-1.658-.512-2.234.142c-1.225 1.392-2.184 3.003-2.838 4.738-.174.463-.327.934-.457 1.41l-.798 2.922-2.984.518c-.032.006-.063.012-.095.019-.472.115-.956.191-1.438.248-.487.058-.979.083-1.47.083-3.19 0-6.241-1.242-8.525-3.467-2.217-2.159-3.552-5.064-3.696-8.163l-.01-.223.011-.223c.078-1.641.499-3.245 1.215-4.722.758-1.562 1.85-2.944 3.18-4.057.667-.557.755-1.556.198-2.223-.557-.666-1.556-.755-2.222-.198-1.316 1.101-2.441 2.421-3.327 3.891l-4.373 7.258-3.93-7.507c-.914-1.745-1.385-3.681-1.385-5.651v-.049c0-3.489 1.389-6.813 3.854-9.278s5.789-3.854 9.278-3.854h18.46l-.854 5.496c-.104.666.228 1.327.825 1.644.775.412 1.733.117 2.145-.658 1.039-1.957 2.586-3.613 4.487-4.756 1.906-1.145 4.083-1.726 6.303-1.726 3.243-.001 6.339 1.28 8.634 3.575zm44.997-13.236c-1.039 1.957-2.586 3.613-4.488 4.756-1.905 1.145-4.082 1.727-6.303 1.727-3.246 0-6.341-1.282-8.635-3.576-2.295-2.295-3.576-5.39-3.576-8.636v-26.475c0-1.599.303-3.183.918-4.66.617-1.484 1.535-2.828 2.671-3.964.384-.384.793-.744 1.223-1.075.84-.648 1.761-1.188 2.741-1.595 1.477-.615 3.062-.918 4.66-.918 3.245 0 6.341 1.282 8.636 3.576 2 2 3.244 4.626 3.518 7.441.039.397.058.795.058 1.194 0 1.472-.248 2.936-.767 4.315-.519 1.378-1.296 2.646-2.268 3.751-.576.654-.512 1.659.142 2.235s1.658.512 2.234-.142c1.225-1.392 2.183-3.003 2.838-4.738.097-.258.188-.518.271-.781.066-.207.128-.416.185-.626l.797-2.923 2.985-.519c.033-.006.066-.012.098-.02.471-.115.954-.19 1.436-.248.488-.058.979-.083 1.47-.083 3.19 0 6.241 1.242 8.525 3.467 2.216 2.159 3.552 5.064 3.696 8.162l.01.223-.011.223c-.031.648-.115 1.293-.251 1.927-.207.967-.534 1.906-.965 2.796-.758 1.562-1.85 2.943-3.18 4.057-.666.557-.755 1.556-.198 2.222s1.556.755 2.222.198c1.282-1.073 2.383-2.352 3.258-3.777.022-.035.043-.071.065-.106l4.37-7.283 3.939 7.524c.133.255.257.513.372.777.671 1.538 1.013 3.197 1.013 4.875v.048c0 3.489-1.389 6.813-3.854 9.278s-5.789 3.854-9.278 3.854h-18.46l.853-5.496c.104-.666-.228-1.327-.825-1.644-.775-.41-1.733-.115-2.145.659zm-23.002 21.872c0-3.245 1.282-6.341 3.576-8.636s5.39-3.576 8.635-3.576c2.221 0 4.398.581 6.303 1.727 1.901 1.143 3.448 2.799 4.487 4.756.412.775 1.37 1.069 2.145.658.596-.317.928-.978.825-1.644l-.853-5.496h18.46c1.086 0 2.169.135 3.222.402 2.292.583 4.384 1.781 6.056 3.452 2.465 2.465 3.854 5.789 3.854 9.278v.049c0 1.785-.387 3.546-1.144 5.164-.077.165-.158.329-.243.49l-3.932 7.5-4.37-7.253c-.885-1.47-2.011-2.789-3.327-3.891-.666-.557-1.664-.468-2.222.198s-.468 1.665.198 2.223c1.331 1.114 2.422 2.495 3.18 4.057.717 1.477 1.138 3.081 1.216 4.723l.011.223-.01.223c-.144 3.099-1.479 6.004-3.696 8.163-2.285 2.225-5.336 3.467-8.525 3.467-.491 0-.983-.025-1.47-.083-.482-.058-.966-.133-1.438-.248-.031-.008-.063-.014-.095-.019l-2.984-.518-.798-2.922c-.13-.477-.283-.948-.458-1.41-.654-1.735-1.612-3.345-2.837-4.738-.576-.654-1.58-.717-2.234-.142-.654.576-.718 1.58-.142 2.235.972 1.104 1.749 2.373 2.268 3.751.52 1.379.767 2.843.767 4.315 0 3.246-1.282 6.341-3.577 8.636-2.295 2.294-5.39 3.576-8.635 3.576-1.599 0-3.182-.303-4.66-.917-1.484-.617-2.828-1.535-3.964-2.671-1.135-1.136-2.053-2.479-2.671-3.964-.614-1.478-.917-3.062-.917-4.661v-26.477zm-18.419-27.602c0 3.245-1.282 6.341-3.576 8.636-2.295 2.295-5.39 3.576-8.636 3.576-2.22 0-4.397-.581-6.303-1.726-1.902-1.143-3.448-2.799-4.488-4.756-.412-.775-1.369-1.069-2.145-.658-.596.317-.928.978-.825 1.644l.854 5.496h-18.46c-3.489 0-6.812-1.389-9.278-3.854-2.465-2.465-3.854-5.789-3.854-9.278v-.048c0-1.97.471-3.906 1.385-5.652l3.93-7.507 4.373 7.258c.886 1.47 2.012 2.789 3.327 3.891.666.558 1.665.468 2.222-.198s.469-1.665-.198-2.222c-1.33-1.114-2.422-2.496-3.18-4.057-.717-1.477-1.138-3.081-1.215-4.722l-.011-.223.01-.224c.143-3.099 1.479-6.004 3.696-8.163 2.285-2.225 5.336-3.467 8.525-3.467.491 0 .983.025 1.47.083.482.058.966.133 1.438.248.031.008.064.014.096.02l2.984.519.797 2.922c.13.476.283.946.457 1.408.654 1.735 1.612 3.346 2.838 4.738.576.654 1.58.718 2.234.142s.718-1.58.142-2.235c-.972-1.104-1.748-2.373-2.268-3.75-.52-1.379-.767-2.843-.767-4.315 0-3.246 1.282-6.341 3.577-8.636s5.39-3.576 8.635-3.576c1.599 0 3.183.303 4.66.917 1.484.617 2.828 1.535 3.963 2.671 1.136 1.136 2.054 2.48 2.671 3.964.614 1.477.918 3.061.918 4.66v26.474z" fill="#fe646f" fill-rule="evenodd"/></g><g><path clip-rule="evenodd" d="m296.866 218.851c.136.023.272.052.409.084.216.053.508.102.877.146.27.033.571.05.902.05 2.019 0 3.857-.807 5.2-2.115 1.319-1.285 2.171-3.038 2.261-4.97-.048-1.005-.31-1.976-.743-2.868-.461-.95-1.13-1.796-1.951-2.483-2.687-2.248-3.042-6.248-.794-8.935 2.248-2.686 6.248-3.042 8.935-.794 1.71 1.432 3.185 3.151 4.35 5.086.537-1.026.842-2.197.842-3.441v-.049c0-2.3-.941-4.391-2.458-5.908-1.518-1.518-3.608-2.459-5.908-2.459h-12.898c.403 2.599-.845 5.281-3.299 6.584-3.098 1.645-6.943.467-8.587-2.631-.647-1.216-1.596-2.223-2.734-2.907-1.104-.664-2.42-1.046-3.848-1.046-2.057 0-3.919.834-5.266 2.181s-2.181 3.209-2.181 5.266v26.475c0 1.02.197 1.976.552 2.831.372.894.934 1.717 1.64 2.424s1.53 1.269 2.424 1.64c.855.355 1.81.552 2.83.552 2.057 0 3.919-.834 5.266-2.181s2.181-3.21 2.181-5.266c0-.957-.163-1.844-.461-2.634-.312-.828-.786-1.601-1.386-2.284-2.316-2.632-2.061-6.643.571-8.96 2.632-2.316 6.644-2.061 8.96.571 1.578 1.794 2.846 3.891 3.719 6.205.226.601.425 1.214.595 1.836zm-62.287-41.363c2.057 0 3.919-.833 5.266-2.181 1.348-1.347 2.181-3.209 2.181-5.266v-26.475c0-1.02-.197-1.976-.552-2.831-.372-.894-.934-1.717-1.64-2.424s-1.529-1.268-2.424-1.64c-.855-.355-1.811-.552-2.83-.552-2.057 0-3.919.833-5.266 2.181-1.348 1.347-2.181 3.209-2.181 5.266 0 .957.163 1.844.461 2.634.312.828.786 1.601 1.386 2.283 2.316 2.632 2.061 6.643-.571 8.96-2.632 2.316-6.644 2.061-8.96-.571-1.577-1.793-2.846-3.891-3.719-6.205-.227-.601-.426-1.214-.596-1.836-.136-.023-.272-.052-.408-.084-.217-.053-.508-.103-.877-.147-.27-.033-.571-.05-.902-.05-2.019 0-3.858.807-5.201 2.115-1.32 1.286-2.171 3.038-2.261 4.97.048 1.005.31 1.976.743 2.868.461.949 1.13 1.796 1.951 2.483 2.686 2.248 3.042 6.248.794 8.935-2.248 2.686-6.248 3.042-8.935.794-1.71-1.432-3.185-3.151-4.35-5.085-.537 1.026-.842 2.197-.842 3.442v.048c0 2.3.941 4.391 2.459 5.909 1.517 1.517 3.609 2.459 5.908 2.459h12.897c-.403-2.599.845-5.281 3.299-6.583 3.098-1.645 6.942-.467 8.587 2.631.647 1.216 1.596 2.223 2.734 2.907 1.105.662 2.42 1.045 3.849 1.045zm20.154-7.448c0 5.34-2.078 10.195-5.468 13.8 3.39 3.607 5.468 8.462 5.468 13.801v26.475c0 2.702-.55 5.303-1.545 7.695-1.032 2.481-2.527 4.701-4.37 6.544-1.843 1.842-4.063 3.338-6.544 4.37-2.392.995-4.993 1.545-7.695 1.545-5.565 0-10.604-2.256-14.251-5.904-1.91-1.91-3.438-4.202-4.461-6.75-.18.028-.357.052-.53.073-.81.098-1.609.149-2.391.149-5.429 0-10.392-2.19-14.036-5.739-2.599-2.532-4.523-5.767-5.459-9.4-2.711-1.333-5.08-3.255-6.936-5.595-2.737-3.451-4.376-7.796-4.376-12.495v-.049c0-5.721 2.296-10.92 6.011-14.721-3.716-3.801-6.011-9-6.011-14.721v-.048c0-4.699 1.639-9.044 4.376-12.495 1.856-2.34 4.225-4.261 6.936-5.594.936-3.633 2.86-6.868 5.459-9.4 3.644-3.549 8.607-5.739 14.036-5.739.782 0 1.581.051 2.391.148.173.021.35.045.53.073 1.023-2.549 2.551-4.84 4.461-6.75 3.647-3.647 8.686-5.903 14.251-5.903 2.702 0 5.303.55 7.695 1.545 2.481 1.032 4.701 2.527 6.544 4.37 1.843 1.842 3.339 4.063 4.37 6.544.995 2.392 1.545 4.993 1.545 7.695zm-12.707 27.602c0-2.057-.833-3.919-2.181-5.266-1.347-1.347-3.209-2.181-5.266-2.181-1.429 0-2.744.382-3.848 1.046-1.139.684-2.087 1.691-2.734 2.907-1.645 3.098-5.49 4.276-8.587 2.631-2.453-1.303-3.702-3.985-3.299-6.584h-12.897c-2.3 0-4.391.941-5.908 2.459-1.517 1.517-2.459 3.609-2.459 5.908v.049c0 1.244.305 2.415.842 3.441 1.165-1.934 2.64-3.653 4.35-5.085 2.687-2.248 6.687-1.892 8.935.794 2.248 2.687 1.892 6.687-.794 8.935-.821.688-1.49 1.534-1.951 2.483-.433.892-.695 1.863-.743 2.868.09 1.932.941 3.685 2.261 4.97 1.343 1.308 3.181 2.115 5.201 2.115.331 0 .632-.017.902-.05.369-.044.661-.093.877-.146.136-.033.272-.061.408-.084.17-.622.369-1.235.596-1.836.872-2.314 2.142-4.412 3.719-6.205 2.316-2.632 6.328-2.887 8.96-.571s2.887 6.328.571 8.96c-.6.683-1.074 1.455-1.386 2.284-.298.79-.461 1.677-.461 2.634 0 2.057.833 3.919 2.181 5.266 1.347 1.347 3.209 2.181 5.266 2.181 1.02 0 1.975-.196 2.83-.552.894-.372 1.718-.934 2.424-1.64s1.269-1.53 1.64-2.424c.356-.855.552-1.811.552-2.831v-26.476zm20.709-13.801c-3.39-3.606-5.468-8.461-5.468-13.8v-26.475c0-2.702.55-5.303 1.545-7.695 1.032-2.481 2.527-4.701 4.37-6.544s4.063-3.338 6.544-4.37c2.392-.995 4.993-1.545 7.695-1.545 5.565 0 10.604 2.256 14.251 5.903 1.91 1.91 3.438 4.201 4.461 6.75.18-.028.357-.052.53-.073.81-.098 1.609-.148 2.391-.148 5.429 0 10.392 2.189 14.036 5.739 2.6 2.532 4.523 5.767 5.46 9.4 2.71 1.333 5.08 3.255 6.936 5.594 2.737 3.451 4.376 7.796 4.376 12.495v.048c0 5.721-2.295 10.92-6.011 14.721 3.716 3.801 6.011 9 6.011 14.721v.049c0 4.698-1.64 9.044-4.376 12.495-1.856 2.339-4.225 4.262-6.936 5.595-.936 3.633-2.86 6.868-5.46 9.4-3.644 3.549-8.606 5.739-14.036 5.739-.782 0-1.581-.051-2.391-.149-.173-.021-.35-.045-.53-.073-1.023 2.549-2.551 4.841-4.461 6.75-3.647 3.647-8.686 5.904-14.251 5.904-2.702 0-5.302-.55-7.695-1.545-2.481-1.032-4.701-2.527-6.544-4.37s-3.338-4.063-4.37-6.544c-.995-2.392-1.545-4.993-1.545-7.695v-26.475c0-5.341 2.078-10.196 5.468-13.802zm7.24-13.801c0 2.057.833 3.919 2.181 5.266 1.347 1.348 3.209 2.181 5.266 2.181 1.429 0 2.744-.382 3.848-1.046 1.139-.684 2.088-1.691 2.735-2.907 1.645-3.098 5.49-4.276 8.587-2.631 2.453 1.302 3.702 3.985 3.299 6.583h12.897c2.3 0 4.391-.941 5.908-2.459 1.518-1.518 2.458-3.609 2.458-5.909v-.048c0-1.244-.304-2.415-.842-3.442-1.165 1.934-2.64 3.653-4.35 5.085-2.686 2.248-6.687 1.892-8.935-.794-2.248-2.687-1.893-6.687.794-8.935.821-.687 1.49-1.534 1.951-2.483.433-.892.696-1.863.743-2.868-.09-1.932-.941-3.684-2.261-4.97-1.343-1.308-3.181-2.115-5.2-2.115-.332 0-.632.017-.902.05-.369.044-.661.094-.877.147-.136.033-.272.061-.409.084-.169.622-.368 1.235-.595 1.836-.873 2.314-2.141 4.411-3.719 6.205-2.316 2.632-6.328 2.887-8.96.571s-2.887-6.328-.571-8.96c.6-.683 1.074-1.455 1.386-2.283.298-.79.461-1.677.461-2.634 0-2.057-.834-3.919-2.181-5.266s-3.209-2.181-5.266-2.181c-1.02 0-1.975.197-2.83.552-.894.372-1.717.934-2.424 1.64s-1.268 1.53-1.64 2.424c-.356.855-.552 1.811-.552 2.831z" fill="#fd4755" fill-rule="evenodd"/></g></g></g></svg>