<svg id="Capa_1" enable-background="new 0 0 512 512" height="512" viewBox="0 0 512 512" width="512" xmlns="http://www.w3.org/2000/svg" xmlns:xlink="http://www.w3.org/1999/xlink"><linearGradient id="SVGID_1_" gradientUnits="userSpaceOnUse" x1="110.89" x2="472.929" y1="366.89" y2="4.852"><stop offset="0" stop-color="#fff2ed" stop-opacity="0"/><stop offset=".2938" stop-color="#ffe9dd" stop-opacity=".373"/><stop offset=".7874" stop-color="#ffd5ba"/></linearGradient><linearGradient id="SVGID_00000124847471443565258630000007243411110275448240_" gradientUnits="userSpaceOnUse" x1="256" x2="256" y1="400.53" y2="54.731"><stop offset="0" stop-color="#ff4d4d" stop-opacity=".4"/><stop offset=".1463" stop-color="#ff4d4d" stop-opacity=".342"/><stop offset="1" stop-color="#ff4d4d" stop-opacity="0"/></linearGradient><g><g><path d="m136.098 101.954c50.617 1.265 49.407-80.899 80.354-93.008 75.989-14.171 305.128 154.747 295.237 264.008-4.057 34.719-61.62 21.156-86.054 19.088-58.537-10.296-109.236 9.702-121.637 71.302-9.217 51.171-28.43 105.367-79.584 127.9-43.032 20.726-100.927 16.807-135.614-17.899-47.931-52.288-18.473-129.305 12.726-183.131 6.921-12.857 14.123-27.775 8.969-41.436-5.094-13.503-22.302-20.333-35.876-15.431-5.436 1.964-34.06 22.654-53.674 11.6-39.986-22.535-33.351-146.706 115.153-142.993z" fill="url(#SVGID_1_)"/></g><g><g><g><g><path d="m256.62 431.877c-2.761 0-5-2.239-5-5v-26.347c0-2.761 2.239-5 5-5s5 2.239 5 5v26.347c0 2.761-2.239 5-5 5z" fill="#6c6cff"/><g><g><path d="m456.641 385.752h-401.282c-5.565 0-10.077-4.512-10.077-10.077v-1.583c0-5.565 4.512-10.077 10.077-10.077h401.281c5.565 0 10.077 4.512 10.077 10.077v1.583c.001 5.566-4.511 10.077-10.076 10.077z" fill="#ff6c6c"/></g><g><g><path d="m459.026 93.292h-406.052c-2.761 0-5-2.239-5-5v-28.561c0-2.761 2.239-5 5-5h406.053c2.761 0 5 2.239 5 5v28.562c-.001 2.761-2.239 4.999-5.001 4.999z" fill="#fa6"/></g><g><path d="m442.28 93.29v297.24c0 5.52-4.48 10-10 10h-15.82l-47.02-11.07-56.62 11.07h-76.09l-29.01-10.75-36.4 10.75h-91.6c-5.52 0-10-4.48-10-10v-297.24z" fill="#fff"/></g><path d="m408.376 376.056c-4.169-3.675-7.844-9.556-11.026-17.642l-86.796-223.596c-.605-1.557-2.104-2.584-3.774-2.584h-22.851c-1.669 0-3.166 1.024-3.772 2.578l-81.274 208.533c-8.36 21.685-17.968 34.311-28.822 37.879-1.661.546-2.785 2.09-2.785 3.838v11.418c0 2.236 1.813 4.049 4.049 4.049h65.409c2.236 0 4.049-1.813 4.049-4.049v-10.749c0-2.094-1.598-3.857-3.684-4.031-8.973-.748-15.89-2.691-20.757-5.829l-.065-.042c-3.368-2.178-4.748-6.419-3.307-10.162l23.185-60.229h77.245l16.692 45.624c2.94 7.351 4.41 13.231 4.41 17.642 0 4.657-1.963 7.902-5.88 9.739-3.375 1.582-8.746 2.665-16.111 3.248-2.106.167-3.736 1.922-3.736 4.035v10.753c0 2.236 1.813 4.049 4.049 4.049h103.632c2.236 0 4.049-1.813 4.049-4.049v-11.154c0-1.82-1.214-3.41-2.969-3.896-2.986-.824-6.039-2.618-9.16-5.373zm-163.754-92.618 31.162-80.953 29.683 80.953z" fill="#ff6c6c"/><g><path d="m69.72 93.29h372.56v24h-372.56z" fill="#d8d8ff"/></g></g></g><path d="m256.538 476.27c-4.073 0-7.902-1.586-10.782-4.466l-6.082-6.082c-5.072-5.072-5.907-13.113-1.985-19.119l14.663-22.458c.923-1.414 2.498-2.267 4.187-2.267s3.263.853 4.187 2.267l14.664 22.458c3.922 6.006 3.086 14.047-1.985 19.119l-6.082 6.082c-2.883 2.879-6.712 4.466-10.785 4.466zm0-40.247-10.477 16.046c-1.35 2.068-1.062 4.835.683 6.581l6.083 6.082c.991.992 2.309 1.538 3.711 1.538s2.72-.546 3.711-1.538l6.082-6.082c1.746-1.746 2.033-4.514.684-6.581z" fill="#fa6"/></g></g><g><path d="m161.28 187.66h-40.733c-5.714 0-10.346-4.632-10.346-10.346v-40.733c0-5.714 4.632-10.346 10.346-10.346h40.733c5.714 0 10.346 4.632 10.346 10.346v40.733c0 5.714-4.632 10.346-10.346 10.346z" fill="#fa6"/><path d="m136.783 170.966c-1.28 0-2.559-.488-3.536-1.464l-9.776-9.776c-1.953-1.953-1.953-5.119 0-7.071s5.118-1.952 7.071 0l6.241 6.241 14.501-14.501c1.953-1.952 5.118-1.952 7.071 0 1.953 1.953 1.953 5.119 0 7.071l-18.037 18.037c-.976.975-2.255 1.463-3.535 1.463z" fill="#fff"/></g><g><g><g><path d="m116.458 215.696h18.583c2.761 0 5-2.239 5-5s-2.239-5-5-5h-18.583c-2.761 0-5 2.239-5 5s2.239 5 5 5z" fill="#fa6"/></g><g><g><path d="m116.458 236.078h58.583c2.761 0 5-2.239 5-5s-2.239-5-5-5h-58.583c-2.761 0-5 2.239-5 5s2.239 5 5 5z" fill="#8282ff"/></g><g><path d="m116.458 256.459h58.583c2.761 0 5-2.239 5-5s-2.239-5-5-5h-58.583c-2.761 0-5 2.239-5 5s2.239 5 5 5z" fill="#8282ff"/></g></g></g><g><g><path d="m116.458 292.444h58.583c2.761 0 5-2.239 5-5s-2.239-5-5-5h-58.583c-2.761 0-5 2.239-5 5s2.239 5 5 5z" fill="#8282ff"/></g><g><path d="m116.458 312.825h58.583c2.761 0 5-2.239 5-5s-2.239-5-5-5h-58.583c-2.761 0-5 2.239-5 5s2.239 5 5 5z" fill="#8282ff"/><g><path d="m144.684 339.782c0-9.16-7.453-16.613-16.613-16.613s-16.613 7.453-16.613 16.613c0 4.518 1.818 8.615 4.754 11.613-2.936 2.998-4.754 7.095-4.754 11.613 0 2.761 2.239 5 5 5s5-2.239 5-5c0-3.646 2.966-6.613 6.613-6.613s6.613 2.967 6.613 6.613c0 2.761 2.239 5 5 5s5-2.239 5-5c0-4.518-1.818-8.615-4.755-11.613 2.937-2.997 4.755-7.095 4.755-11.613zm-16.613-6.612c3.646 0 6.613 2.966 6.613 6.613s-2.967 6.613-6.613 6.613-6.613-2.967-6.613-6.613 2.967-6.613 6.613-6.613z" fill="#ff6c6c"/></g></g></g></g><g><g><circle cx="383.26" cy="295.899" fill="#fa6" r="37.651"/></g><g><path d="m380.055 309.918c-1.28 0-2.559-.488-3.536-1.464l-9.776-9.776c-1.953-1.953-1.953-5.119 0-7.071s5.118-1.952 7.071 0l6.241 6.241 14.501-14.501c1.953-1.952 5.118-1.952 7.071 0 1.953 1.953 1.953 5.119 0 7.071l-18.037 18.037c-.976.975-2.255 1.463-3.535 1.463z" fill="#fff"/></g></g></g><g><path d="m101.82 453.246c-1.28 0-2.559-.488-3.536-1.464l-10.5-10.5c-1.953-1.953-1.953-5.119 0-7.071l10.5-10.5c1.953-1.952 5.118-1.952 7.071 0l10.5 10.5c1.953 1.953 1.953 5.119 0 7.071l-10.5 10.5c-.976.975-2.255 1.464-3.535 1.464zm-3.429-15.5 3.429 3.429 3.429-3.429-3.429-3.429z" fill="#8282ff"/></g><g><path d="m409.464 453.246c-1.28 0-2.559-.488-3.536-1.464l-10.5-10.5c-1.953-1.953-1.953-5.119 0-7.071l10.5-10.5c1.953-1.952 5.118-1.952 7.071 0l10.5 10.5c1.953 1.953 1.953 5.119 0 7.071l-10.5 10.5c-.976.975-2.255 1.464-3.535 1.464zm-3.428-15.5 3.429 3.429 3.429-3.429-3.429-3.429z" fill="#ff9c33"/></g><g><path d="m473.433 145.918c-1.28 0-2.559-.488-3.536-1.464l-10.5-10.5c-1.953-1.953-1.953-5.119 0-7.071l10.5-10.5c1.953-1.952 5.118-1.952 7.071 0l10.5 10.5c1.953 1.953 1.953 5.119 0 7.071l-10.5 10.5c-.976.976-2.255 1.464-3.535 1.464zm-3.429-15.5 3.429 3.429 3.429-3.429-3.429-3.429z" fill="#ff6c6c"/></g><g><path d="m140.75 452.746c-1.28 0-2.559-.488-3.536-1.464-1.953-1.953-1.953-5.119 0-7.071l10-10c1.953-1.952 5.118-1.952 7.071 0 1.953 1.953 1.953 5.119 0 7.071l-10 10c-.976.975-2.255 1.464-3.535 1.464z" fill="#ff9c33"/></g><g><path d="m169.202 38.787c-1.28 0-2.559-.488-3.536-1.464-1.953-1.953-1.953-5.119 0-7.071l10-10c1.953-1.952 5.118-1.952 7.071 0 1.953 1.953 1.953 5.119 0 7.071l-10 10c-.976.975-2.255 1.464-3.535 1.464z" fill="#ff9c33"/></g></g><path d="m459.026 54.731h-406.052c-2.761 0-5 2.239-5 5v28.562c0 2.761 2.239 5 5 5h16.746v297.237c0 5.52 4.48 10 10 10h352.56c5.52 0 10-4.48 10-10v-297.238h16.746c2.761 0 5-2.239 5-5v-28.561c0-2.762-2.238-5-5-5z" fill="url(#SVGID_00000124847471443565258630000007243411110275448240_)"/></g></svg>